<svg width="364" height="83" viewBox="0 0 364 83" fill="none" xmlns="http://www.w3.org/2000/svg">
<rect y="8" width="39" height="59" rx="5" fill="#F57676"/>
<rect x="28" y="32" width="4" height="10" rx="2" fill="#C75D5D"/>
<path d="M66.288 67.144C63.408 67.144 61.968 66.376 61.968 64.84V19.48C61.968 18.472 62.184 17.752 62.616 17.32C63.096 16.84 63.84 16.6 64.848 16.6H78.888C90.84 16.6 96.816 21.112 96.816 30.136C96.816 32.824 96.048 35.176 94.512 37.192C93.024 39.16 90.984 40.624 88.392 41.584V41.872C89.304 42.208 90.24 43.024 91.2 44.32C92.16 45.568 92.952 46.96 93.576 48.496L99.912 64.336C100.152 64.96 100.272 65.416 100.272 65.704C100.272 66.136 99.912 66.496 99.192 66.784C98.472 67.024 97.392 67.144 95.952 67.144H93C90.648 67.144 89.256 66.64 88.824 65.632L83.136 51.592C82.32 50.008 81.432 48.904 80.472 48.28C79.56 47.608 78.024 47.272 75.864 47.272H73.056V64.84C73.056 66.376 71.616 67.144 68.736 67.144H66.288ZM79.896 37.696C81.384 37.696 82.68 37.096 83.784 35.896C84.888 34.696 85.44 33.232 85.44 31.504C85.44 29.824 84.888 28.504 83.784 27.544C82.728 26.536 81.264 26.032 79.392 26.032H73.056V37.696H79.896ZM121.465 67.576C115.753 67.576 111.409 65.92 108.433 62.608C105.457 59.248 103.969 54.424 103.969 48.136C103.969 41.848 105.457 37.048 108.433 33.736C111.409 30.424 115.753 28.768 121.465 28.768C127.177 28.768 131.497 30.424 134.425 33.736C137.401 37.048 138.889 41.848 138.889 48.136C138.889 54.424 137.401 59.248 134.425 62.608C131.497 65.92 127.177 67.576 121.465 67.576ZM121.465 59.152C123.721 59.152 125.377 58.24 126.433 56.416C127.537 54.544 128.089 51.784 128.089 48.136C128.089 44.488 127.537 41.752 126.433 39.928C125.377 38.104 123.721 37.192 121.465 37.192C119.209 37.192 117.529 38.104 116.425 39.928C115.321 41.752 114.769 44.488 114.769 48.136C114.769 55.48 117.001 59.152 121.465 59.152ZM162.458 67.576C156.746 67.576 152.402 65.92 149.426 62.608C146.45 59.248 144.962 54.424 144.962 48.136C144.962 41.848 146.45 37.048 149.426 33.736C152.402 30.424 156.746 28.768 162.458 28.768C168.17 28.768 172.49 30.424 175.418 33.736C178.394 37.048 179.882 41.848 179.882 48.136C179.882 54.424 178.394 59.248 175.418 62.608C172.49 65.92 168.17 67.576 162.458 67.576ZM162.458 59.152C164.714 59.152 166.37 58.24 167.426 56.416C168.53 54.544 169.082 51.784 169.082 48.136C169.082 44.488 168.53 41.752 167.426 39.928C166.37 38.104 164.714 37.192 162.458 37.192C160.202 37.192 158.522 38.104 157.418 39.928C156.314 41.752 155.762 44.488 155.762 48.136C155.762 55.48 157.994 59.152 162.458 59.152ZM228.722 28.768C232.322 28.768 234.962 29.728 236.642 31.648C238.37 33.52 239.234 36.448 239.234 40.432V64.84C239.234 66.376 237.794 67.144 234.914 67.144H232.898C230.018 67.144 228.578 66.376 228.578 64.84V42.016C228.578 40.528 228.242 39.424 227.57 38.704C226.946 37.936 225.866 37.552 224.33 37.552C222.122 37.552 220.226 38.92 218.642 41.656V64.84C218.642 66.376 217.202 67.144 214.322 67.144H212.306C209.426 67.144 207.986 66.376 207.986 64.84V42.016C207.986 40.528 207.65 39.424 206.978 38.704C206.354 37.936 205.274 37.552 203.738 37.552C202.442 37.552 201.314 37.984 200.354 38.848C199.394 39.664 198.626 40.624 198.05 41.728V64.84C198.05 66.376 196.61 67.144 193.73 67.144H191.714C188.834 67.144 187.394 66.376 187.394 64.84V42.016C187.394 39.904 187.322 38.296 187.178 37.192C187.082 36.04 186.938 34.768 186.746 33.376C186.602 32.704 186.53 32.2 186.53 31.864C186.53 31.096 187.49 30.52 189.41 30.136C191.378 29.752 193.106 29.56 194.594 29.56C195.458 29.56 196.058 29.896 196.394 30.568C196.73 31.192 196.97 31.888 197.114 32.656C197.306 33.424 197.426 33.952 197.474 34.24C198.626 32.704 200.138 31.408 202.01 30.352C203.93 29.296 205.97 28.768 208.13 28.768C210.626 28.768 212.642 29.224 214.178 30.136C215.762 31 216.914 32.368 217.634 34.24C218.834 32.704 220.418 31.408 222.386 30.352C224.354 29.296 226.466 28.768 228.722 28.768ZM257.929 67.576C254.953 67.576 252.217 67.12 249.721 66.208C247.225 65.296 245.977 64.12 245.977 62.68C245.977 61.72 246.433 60.568 247.345 59.224C248.257 57.832 249.073 57.136 249.793 57.136C250.177 57.136 250.705 57.328 251.377 57.712C252.385 58.144 253.297 58.504 254.113 58.792C254.977 59.032 255.961 59.152 257.065 59.152C258.505 59.152 259.585 58.888 260.305 58.36C261.073 57.832 261.457 57.088 261.457 56.128C261.457 55.168 261.049 54.424 260.233 53.896C259.417 53.368 257.881 52.624 255.625 51.664C253.945 50.944 252.505 50.224 251.305 49.504C250.105 48.736 249.049 47.632 248.137 46.192C247.273 44.704 246.841 42.832 246.841 40.576C246.841 36.88 248.017 34 250.369 31.936C252.721 29.824 255.913 28.768 259.945 28.768C262.489 28.768 264.913 29.128 267.217 29.848C269.569 30.568 270.745 31.6 270.745 32.944C270.745 33.856 270.385 35.032 269.665 36.472C268.945 37.912 268.273 38.632 267.649 38.632C267.457 38.632 266.737 38.392 265.489 37.912C264.241 37.384 262.825 37.12 261.241 37.12C258.697 37.12 257.425 38.008 257.425 39.784C257.425 40.84 257.857 41.656 258.721 42.232C259.585 42.76 261.145 43.432 263.401 44.248C265.897 45.16 267.961 46.432 269.593 48.064C271.225 49.648 272.041 52.048 272.041 55.264C272.041 59.008 270.793 62.008 268.297 64.264C265.801 66.472 262.345 67.576 257.929 67.576ZM289.759 67.576C282.751 67.576 279.247 63.688 279.247 55.912V37.768H278.095C277.327 37.768 276.775 37.48 276.439 36.904C276.103 36.328 275.935 35.416 275.935 34.168V32.944C275.935 31.696 276.103 30.784 276.439 30.208C276.775 29.632 277.327 29.344 278.095 29.344H279.247L280.183 22.504C280.423 20.968 281.719 20.2 284.071 20.2H286.303C288.703 20.2 289.903 20.968 289.903 22.504V29.344H293.431C294.199 29.344 294.751 29.632 295.087 30.208C295.423 30.784 295.591 31.696 295.591 32.944V34.168C295.591 35.416 295.423 36.328 295.087 36.904C294.751 37.48 294.199 37.768 293.431 37.768H289.903V56.056C289.903 57.16 290.095 57.952 290.479 58.432C290.911 58.912 291.583 59.152 292.495 59.152C292.735 59.152 293.047 59.104 293.431 59.008C293.863 58.912 294.199 58.864 294.439 58.864C294.871 58.864 295.255 59.224 295.591 59.944C295.927 60.664 296.191 61.456 296.383 62.32C296.575 63.184 296.671 63.76 296.671 64.048C296.671 66.4 294.367 67.576 289.759 67.576ZM320.129 67.576C313.793 67.576 309.065 65.896 305.945 62.536C302.873 59.128 301.337 54.424 301.337 48.424C301.337 41.656 302.873 36.688 305.945 33.52C309.065 30.352 313.361 28.768 318.833 28.768C324.161 28.768 328.073 30.496 330.569 33.952C333.113 37.408 334.385 41.872 334.385 47.344C334.385 47.92 333.881 48.784 332.873 49.936C331.913 51.04 331.193 51.592 330.713 51.592H312.353C312.593 54.328 313.409 56.272 314.801 57.424C316.193 58.576 318.137 59.152 320.633 59.152C321.977 59.152 323.201 59.008 324.305 58.72C325.409 58.384 326.561 57.976 327.761 57.496C328.529 57.112 329.057 56.92 329.345 56.92C329.825 56.92 330.353 57.28 330.929 58C331.553 58.672 332.057 59.464 332.441 60.376C332.873 61.24 333.089 61.912 333.089 62.392C333.089 63.496 332.345 64.456 330.857 65.272C329.369 66.04 327.593 66.616 325.529 67C323.465 67.384 321.665 67.576 320.129 67.576ZM324.017 44.464C324.017 42.256 323.585 40.504 322.721 39.208C321.857 37.864 320.561 37.192 318.833 37.192C315.281 37.192 313.121 39.616 312.353 44.464H324.017ZM345.909 67.144C343.029 67.144 341.589 66.376 341.589 64.84V42.016C341.589 39.904 341.517 38.296 341.373 37.192C341.277 36.04 341.133 34.768 340.941 33.376C340.797 32.704 340.725 32.2 340.725 31.864C340.725 31.096 341.685 30.52 343.605 30.136C345.573 29.752 347.301 29.56 348.789 29.56C349.653 29.56 350.253 29.896 350.589 30.568C350.925 31.192 351.165 31.888 351.309 32.656C351.501 33.424 351.621 33.952 351.669 34.24C352.581 32.56 353.637 31.24 354.837 30.28C356.085 29.272 357.645 28.768 359.517 28.768C361.149 28.768 362.229 29.104 362.757 29.776C363.333 30.4 363.621 31.36 363.621 32.656C363.621 33.664 363.405 34.936 362.973 36.472C362.541 37.96 362.013 38.704 361.389 38.704C361.101 38.704 360.597 38.608 359.877 38.416C359.157 38.224 358.533 38.128 358.005 38.128C356.709 38.128 355.557 38.512 354.549 39.28C353.589 40 352.821 40.816 352.245 41.728V64.84C352.245 66.376 350.805 67.144 347.925 67.144H345.909Z" fill="#F57676"/>
</svg>
